SymCharK-Regular.ufo
<glyph name="quotedbl" format="2">
  <advance width="727"/>
  <unicode hex="0022"/>
  <outline>
    <contour>
      <point x="626" y="1452" type="line"/>
      <point x="434" y="1452" type="line"/>
      <point x="434" y="1204" type="line"/>
      <point x="478" y="949" type="line"/>
      <point x="582" y="949" type="line"/>
      <point x="626" y="1204" type="line"/>
    </contour>
    <contour>
      <point x="298" y="1452" type="line"/>
      <point x="106" y="1452" type="line"/>
      <point x="106" y="1204" type="line"/>
      <point x="150" y="949" type="line"/>
      <point x="254" y="949" type="line"/>
      <point x="298" y="1204" type="line"/>
    </contour>
  </outline>
</glyph>
<glyph name="hyphen" format="2">
  <advance width="818"/>
  <unicode hex="002D"/>
  <outline>
    <contour>
      <point x="31" y="385" type="line"/>
      <point x="651" y="385" type="line"/>
      <point x="651" y="535" type="line"/>
      <point x="31" y="535" type="line"/>
    </contour>
  </outline>
</glyph>
<glyph name="zero" format="2">
  <advance width="1139"/>
  <unicode hex="0030"/>
  <outline>
    <contour>
      <point x="1025" y="722" type="curve" smooth="yes"/>
      <point x="1025" y="1213"/>
      <point x="874" y="1462"/>
      <point x="557" y="1462" type="curve"/>
      <point x="256" y="1458"/>
      <point x="97" y="1223"/>
      <point x="97" y="742" type="curve" smooth="yes"/>
      <point x="97" y="230"/>
      <point x="241" y="-20"/>
      <point x="561" y="-20" type="curve" smooth="yes"/>
      <point x="866" y="-20"/>
      <point x="1025" y="229"/>
    </contour>
    <contour>
      <point x="857" y="722" type="curve" smooth="yes"/>
      <point x="857" y="290"/>
      <point x="752" y="106"/>
      <point x="561" y="106" type="curve" smooth="yes"/>
      <point x="365" y="106"/>
      <point x="265" y="309"/>
      <point x="265" y="722" type="curve" smooth="yes"/>
      <point x="265" y="1135"/>
      <point x="366" y="1336"/>
      <point x="561" y="1336" type="curve" smooth="yes"/>
      <point x="745" y="1336"/>
      <point x="857" y="1181"/>
    </contour>
  </outline>
</glyph>
<glyph name="four" format="2">
  <advance width="1139"/>
  <unicode hex="0034"/>
  <outline>
    <contour>
      <point x="1025" y="490" type="line"/>
      <point x="829" y="490" type="line"/>
      <point x="829" y="1448" type="line"/>
      <point x="705" y="1448" type="line"/>
      <point x="42" y="505" type="line"/>
      <point x="42" y="357" type="line"/>
      <point x="678" y="357" type="line"/>
      <point x="678" y="0" type="line"/>
      <point x="829" y="0" type="line"/>
      <point x="829" y="357" type="line"/>
      <point x="1025" y="357" type="line"/>
    </contour>
    <contour>
      <point x="184" y="498" type="line"/>
      <point x="670" y="1199" type="line"/>
      <point x="670" y="498" type="line"/>
    </contour>
  </outline>
</glyph>
<glyph name="eight" format="2">
  <advance width="1139"/>
  <unicode hex="0038"/>
  <outline>
    <contour>
      <point x="1033" y="408" type="curve" smooth="yes"/>
      <point x="1033" y="588"/>
      <point x="958" y="683"/>
      <point x="753" y="779" type="curve"/>
      <point x="854" y="844"/>
      <point x="912" y="887"/>
      <point x="927" y="907" type="curve" smooth="yes"/>
      <point x="960" y="950"/>
      <point x="976" y="1009"/>
      <point x="976" y="1085" type="curve" smooth="yes"/>
      <point x="976" y="1316"/>
      <point x="801" y="1462"/>
      <point x="565" y="1462" type="curve" smooth="yes"/>
      <point x="326" y="1462"/>
      <point x="154" y="1299"/>
      <point x="154" y="1089" type="curve" smooth="yes"/>
      <point x="154" y="945"/>
      <point x="215" y="865"/>
      <point x="378" y="790" type="curve"/>
      <point x="345" y="771"/>
      <point x="311" y="754"/>
      <point x="278" y="735" type="curve" smooth="yes"/>
      <point x="153" y="663"/>
      <point x="97" y="561"/>
      <point x="97" y="412" type="curve" smooth="yes"/>
      <point x="97" y="156"/>
      <point x="308" y="-20"/>
      <point x="565" y="-20" type="curve" smooth="yes"/>
      <point x="843" y="-20"/>
      <point x="1033" y="160"/>
    </contour>
    <contour>
      <point x="808" y="1089" type="curve" smooth="yes"/>
      <point x="808" y="951"/>
      <point x="700" y="844"/>
      <point x="565" y="844" type="curve" smooth="yes"/>
      <point x="426" y="844"/>
      <point x="322" y="958"/>
      <point x="322" y="1093" type="curve" smooth="yes"/>
      <point x="322" y="1202"/>
      <point x="421" y="1336"/>
      <point x="557" y="1336" type="curve" smooth="yes"/>
      <point x="565" y="1336" type="line"/>
      <point x="573" y="1336" type="line" smooth="yes"/>
      <point x="698" y="1336"/>
      <point x="808" y="1208"/>
    </contour>
    <contour>
      <point x="865" y="408" type="curve" smooth="yes"/>
      <point x="865" y="238"/>
      <point x="739" y="106"/>
      <point x="569" y="106" type="curve" smooth="yes"/>
      <point x="405" y="106"/>
      <point x="265" y="245"/>
      <point x="265" y="416" type="curve" smooth="yes"/>
      <point x="265" y="573"/>
      <point x="402" y="718"/>
      <point x="561" y="718" type="curve" smooth="yes"/>
      <point x="724" y="718"/>
      <point x="865" y="585"/>
    </contour>
  </outline>
</glyph>
<glyph name="equal" format="2">
  <advance width="1196"/>
  <unicode hex="003D"/>
  <outline>
    <contour>
      <point x="1065" y="1000" type="line"/>
      <point x="130" y="1000" type="line"/>
      <point x="130" y="840" type="line"/>
      <point x="1065" y="840" type="line"/>
    </contour>
    <contour>
      <point x="1065" y="568" type="line"/>
      <point x="130" y="568" type="line"/>
      <point x="130" y="409" type="line"/>
      <point x="1065" y="409" type="line"/>
    </contour>
  </outline>
</glyph>
<glyph name="E" format="2">
  <advance width="1366"/>
  <unicode hex="0045"/>
  <outline>
    <contour>
      <point x="1240" y="142" type="line"/>
      <point x="345" y="142" type="line"/>
      <point x="345" y="672" type="line"/>
      <point x="1150" y="672" type="line"/>
      <point x="1150" y="814" type="line"/>
      <point x="345" y="814" type="line"/>
      <point x="345" y="1308" type="line"/>
      <point x="1207" y="1308" type="line"/>
      <point x="1207" y="1450" type="line"/>
      <point x="178" y="1450" type="line"/>
      <point x="178" y="0" type="line"/>
      <point x="1240" y="0" type="line"/>
    </contour>
  </outline>
</glyph>
<glyph name="N" format="2">
  <advance width="1479"/>
  <unicode hex="004E"/>
  <outline>
    <contour>
      <point x="1296" y="1450" type="line"/>
      <point x="1132" y="1450" type="line"/>
      <point x="1132" y="270" type="line"/>
      <point x="345" y="1450" type="line"/>
      <point x="170" y="1450" type="line"/>
      <point x="170" y="0" type="line"/>
      <point x="334" y="0" type="line"/>
      <point x="334" y="1180" type="line"/>
      <point x="1121" y="0" type="line"/>
      <point x="1296" y="0" type="line"/>
    </contour>
  </outline>
</glyph>
<glyph name="U" format="2">
  <advance width="1479"/>
  <unicode hex="0055"/>
  <outline>
    <contour>
      <point x="1296" y="1450" type="line"/>
      <point x="1129" y="1450" type="line"/>
      <point x="1129" y="520" type="line" smooth="yes"/>
      <point x="1129" y="251"/>
      <point x="998" y="122"/>
      <point x="733" y="122" type="curve" smooth="yes"/>
      <point x="488" y="122"/>
      <point x="345" y="259"/>
      <point x="345" y="504" type="curve" smooth="yes"/>
      <point x="345" y="1450" type="line"/>
      <point x="178" y="1450" type="line"/>
      <point x="178" y="496" type="line" smooth="yes"/>
      <point x="178" y="165"/>
      <point x="377" y="-20"/>
      <point x="737" y="-20" type="curve" smooth="yes"/>
      <point x="1080" y="-20"/>
      <point x="1296" y="169"/>
      <point x="1296" y="504" type="curve" smooth="yes"/>
    </contour>
  </outline>
</glyph>
<glyph name="X" format="2">
  <advance width="1366"/>
  <unicode hex="0058"/>
  <outline>
    <contour>
      <point x="270" y="0" type="line"/>
      <point x="696" y="603" type="line"/>
      <point x="1122" y="0" type="line"/>
      <point x="1327" y="0" type="line"/>
      <point x="798" y="749" type="line"/>
      <point x="1293" y="1450" type="line"/>
      <point x="1088" y="1450" type="line"/>
      <point x="696" y="894" type="line"/>
      <point x="304" y="1450" type="line"/>
      <point x="99" y="1450" type="line"/>
      <point x="593" y="749" type="line"/>
      <point x="65" y="0" type="line"/>
    </contour>
  </outline>
</glyph>
<glyph name="bracketleft" format="2">
  <advance width="569"/>
  <unicode hex="005B"/>
  <outline>
    <contour>
      <point x="538" y="-292" type="line"/>
      <point x="310" y="-292" type="line"/>
      <point x="310" y="1333" type="line"/>
      <point x="538" y="1333" type="line"/>
      <point x="538" y="1450" type="line"/>
      <point x="154" y="1450" type="line"/>
      <point x="154" y="-409" type="line"/>
      <point x="538" y="-409" type="line"/>
    </contour>
  </outline>
</glyph>
<glyph name="o" format="2">
  <advance width="1139"/>
  <unicode hex="006F"/>
  <outline>
    <contour>
      <point x="1025" y="512" type="curve" smooth="yes"/>
      <point x="1025" y="811"/>
      <point x="819" y="1074"/>
      <point x="561" y="1074" type="curve" smooth="yes"/>
      <point x="302" y="1074"/>
      <point x="105" y="808"/>
      <point x="105" y="512" type="curve" smooth="yes"/>
      <point x="105" y="222"/>
      <point x="304" y="-20"/>
      <point x="561" y="-20" type="curve" smooth="yes"/>
      <point x="824" y="-20"/>
      <point x="1025" y="220"/>
    </contour>
    <contour>
      <point x="889" y="512" type="curve" smooth="yes"/>
      <point x="889" y="300"/>
      <point x="743" y="116"/>
      <point x="561" y="116" type="curve" smooth="yes"/>
      <point x="398" y="116"/>
      <point x="241" y="293"/>
      <point x="241" y="512" type="curve" smooth="yes"/>
      <point x="241" y="728"/>
      <point x="389" y="940"/>
      <point x="561" y="940" type="curve" smooth="yes"/>
      <point x="741" y="940"/>
      <point x="889" y="739"/>
    </contour>
  </outline>
</glyph>
<glyph name="z" format="2">
  <advance width="1024"/>
  <unicode hex="007A"/>
  <outline>
    <contour>
      <point x="961" y="128" type="line"/>
      <point x="250" y="128" type="line"/>
      <point x="929" y="947" type="line"/>
      <point x="929" y="1053" type="line"/>
      <point x="106" y="1053" type="line"/>
      <point x="106" y="934" type="line"/>
      <point x="745" y="934" type="line"/>
      <point x="66" y="136" type="line"/>
      <point x="66" y="0" type="line"/>
      <point x="961" y="0" type="line"/>
    </contour>
  </outline>
</glyph>
<glyph name="asciitilde" format="2">
  <advance width="1196"/>
  <unicode hex="007E"/>
  <outline>
    <contour>
      <point x="1088" y="855" type="line"/>
      <point x="1024" y="780"/>
      <point x="917" y="721"/>
      <point x="846" y="721" type="curve" smooth="yes"/>
      <point x="722" y="721"/>
      <point x="497" y="875"/>
      <point x="360" y="875" type="curve" smooth="yes"/>
      <point x="211" y="875"/>
      <point x="98" y="792"/>
      <point x="98" y="748" type="curve" smooth="yes"/>
      <point x="98" y="577" type="line"/>
      <point x="193" y="675"/>
      <point x="257" y="709"/>
      <point x="340" y="709" type="curve" smooth="yes"/>
      <point x="508" y="709"/>
      <point x="644" y="555"/>
      <point x="818" y="555" type="curve" smooth="yes"/>
      <point x="948" y="555"/>
      <point x="998" y="577"/>
      <point x="1088" y="667" type="curve"/>
    </contour>
  </outline>
</glyph>
<glyph name="Euro" format="2">
  <advance width="1207"/>
  <unicode hex="20AC"/>
  <outline>
    <contour>
      <point x="1157" y="1410" type="line"/>
      <point x="1057" y="1466"/>
      <point x="949" y="1491"/>
      <point x="837" y="1491" type="curve" smooth="yes"/>
      <point x="522" y="1491"/>
      <point x="203" y="1279"/>
      <point x="166" y="935" type="curve"/>
      <point x="50" y="935" type="line"/>
      <point x="50" y="799" type="line"/>
      <point x="155" y="799" type="line"/>
      <point x="155" y="669" type="line"/>
      <point x="50" y="669" type="line"/>
      <point x="50" y="536" type="line"/>
      <point x="175" y="536" type="line"/>
      <point x="202" y="188"/>
      <point x="504" y="-26"/>
      <point x="827" y="-26" type="curve" smooth="yes"/>
      <point x="924" y="-26"/>
      <point x="1022" y="-7"/>
      <point x="1117" y="33" type="curve"/>
      <point x="1117" y="239" type="line"/>
      <point x="1037" y="171"/>
      <point x="937" y="141"/>
      <point x="833" y="141" type="curve" smooth="yes"/>
      <point x="613" y="141"/>
      <point x="390" y="284"/>
      <point x="374" y="535" type="curve"/>
      <point x="939" y="535" type="line"/>
      <point x="957" y="669" type="line"/>
      <point x="353" y="669" type="line"/>
      <point x="353" y="672"/>
      <point x="352" y="696"/>
      <point x="352" y="724" type="curve" smooth="yes"/>
      <point x="352" y="766" type="line" smooth="yes"/>
      <point x="352" y="781"/>
      <point x="352" y="792"/>
      <point x="353" y="801" type="curve"/>
      <point x="974" y="801" type="line"/>
      <point x="991" y="935" type="line"/>
      <point x="369" y="935" type="line"/>
      <point x="393" y="1171"/>
      <point x="615" y="1326"/>
      <point x="834" y="1326" type="curve" smooth="yes"/>
      <point x="934" y="1326"/>
      <point x="1034" y="1295"/>
      <point x="1117" y="1224" type="curve"/>
    </contour>
  </outline>
</glyph>
<glyph name="shifted" format="2">
  <advance width="1911"/>
  <unicode hex="E009"/>
  <outline>
    <contour>
      <point x="1092" y="1516" type="line" smooth="yes"/>
      <point x="1056" y="1552"/>
      <point x="1007" y="1573"/>
      <point x="956" y="1573" type="curve" smooth="yes"/>
      <point x="902" y="1573"/>
      <point x="855" y="1552"/>
      <point x="819" y="1516" type="curve" smooth="yes"/>
      <point x="107" y="803" type="line" smooth="yes"/>
      <point x="69" y="765"/>
      <point x="50" y="720"/>
      <point x="50" y="667" type="curve" smooth="yes"/>
      <point x="50" y="557"/>
      <point x="140" y="474"/>
      <point x="242" y="474" type="curve" smooth="yes"/>
      <point x="571" y="474" type="line"/>
      <point x="571" y="190" type="line" smooth="yes"/>
      <point x="571" y="82"/>
      <point x="657" y="0"/>
      <point x="764" y="0" type="curve" smooth="yes"/>
      <point x="1147" y="0" type="line" smooth="yes"/>
      <point x="1253" y="0"/>
      <point x="1340" y="82"/>
      <point x="1340" y="190" type="curve" smooth="yes"/>
      <point x="1340" y="474" type="line"/>
      <point x="1668" y="474" type="line" smooth="yes"/>
      <point x="1769" y="474"/>
      <point x="1861" y="556"/>
      <point x="1861" y="667" type="curve"/>
      <point x="1860" y="717"/>
      <point x="1843" y="763"/>
      <point x="1804" y="803" type="curve" smooth="yes"/>
    </contour>
  </outline>
</glyph>
<glyph name="done" format="2">
  <advance width="1752"/>
  <unicode hex="E017"/>
  <outline>
    <contour>
      <point x="1659" y="975" type="curve" smooth="yes"/>
      <point x="806" y="122" type="line" smooth="yes"/>
      <point x="776" y="92"/>
      <point x="738" y="80"/>
      <point x="702" y="80" type="curve" smooth="yes"/>
      <point x="664" y="80"/>
      <point x="626" y="95"/>
      <point x="599" y="122" type="curve" smooth="yes"/>
      <point x="93" y="626" type="line" smooth="yes"/>
      <point x="64" y="655"/>
      <point x="50" y="693"/>
      <point x="50" y="730" type="curve" smooth="yes"/>
      <point x="50" y="767"/>
      <point x="64" y="804"/>
      <point x="93" y="833" type="curve" smooth="yes"/>
      <point x="225" y="966" type="line" smooth="yes"/>
      <point x="254" y="995"/>
      <point x="291" y="1009"/>
      <point x="329" y="1009" type="curve" smooth="yes"/>
      <point x="367" y="1009"/>
      <point x="405" y="995"/>
      <point x="433" y="966" type="curve" smooth="yes"/>
      <point x="697" y="701" type="line"/>
      <point x="1315" y="1318" type="line" smooth="yes"/>
      <point x="1344" y="1347"/>
      <point x="1381" y="1362"/>
      <point x="1419" y="1362" type="curve" smooth="yes"/>
      <point x="1455" y="1362"/>
      <point x="1492" y="1349"/>
      <point x="1521" y="1320" type="curve" smooth="yes"/>
      <point x="1658" y="1183" type="line" smooth="yes"/>
      <point x="1687" y="1154"/>
      <point x="1702" y="1116"/>
      <point x="1702" y="1080" type="curve" smooth="yes"/>
      <point x="1702" y="1041"/>
      <point x="1688" y="1004"/>
    </contour>
    <contour>
      <point x="1536" y="1078" type="line"/>
      <point x="1417" y="1197" type="line"/>
      <point x="697" y="475" type="line"/>
      <point x="328" y="844" type="line"/>
      <point x="215" y="731" type="line"/>
      <point x="702" y="243" type="line"/>
    </contour>
  </outline>
</glyph>
<glyph name="alt_1" format="2">
  <advance width="1776"/>
  <unicode hex="E019"/>
  <outline>
    <contour>
      <point x="514" y="1033" type="line"/>
      <point x="523" y="1060"/>
      <point x="534" y="1082"/>
      <point x="545" y="1114" type="curve"/>
      <point x="560" y="1086"/>
      <point x="566" y="1058"/>
      <point x="573" y="1033" type="curve"/>
      <point x="696" y="698" type="line"/>
      <point x="392" y="698" type="line"/>
    </contour>
    <contour>
      <point x="1213" y="1312" type="line"/>
      <point x="1213" y="1323"/>
      <point x="1204" y="1332"/>
      <point x="1193" y="1332" type="curve" smooth="yes"/>
      <point x="1100" y="1332" type="line" smooth="yes"/>
      <point x="1089" y="1332"/>
      <point x="1080" y="1323"/>
      <point x="1080" y="1312" type="curve" smooth="yes"/>
      <point x="1080" y="258" type="line" smooth="yes"/>
      <point x="1080" y="247"/>
      <point x="1089" y="238"/>
      <point x="1100" y="238" type="curve" smooth="yes"/>
      <point x="1193" y="238" type="line" smooth="yes"/>
      <point x="1204" y="238"/>
      <point x="1213" y="247"/>
      <point x="1213" y="258" type="curve" smooth="yes"/>
    </contour>
    <contour>
      <point x="1726" y="283" type="line"/>
      <point x="1716" y="308"/>
      <point x="1707" y="338"/>
      <point x="1698" y="373" type="curve" smooth="yes"/>
      <point x="1696" y="383"/>
      <point x="1690" y="388"/>
      <point x="1679" y="388" type="curve" smooth="yes"/>
      <point x="1676" y="388"/>
      <point x="1674" y="388"/>
      <point x="1673" y="387" type="curve"/>
      <point x="1644" y="379"/>
      <point x="1625" y="374"/>
      <point x="1600" y="374" type="curve" smooth="yes"/>
      <point x="1567" y="374"/>
      <point x="1547" y="389"/>
      <point x="1547" y="420" type="curve" smooth="yes"/>
      <point x="1547" y="927" type="line"/>
      <point x="1673" y="927" type="line" smooth="yes"/>
      <point x="1684" y="927"/>
      <point x="1693" y="936"/>
      <point x="1693" y="947" type="curve" smooth="yes"/>
      <point x="1693" y="1039" type="line" smooth="yes"/>
      <point x="1693" y="1050"/>
      <point x="1684" y="1059"/>
      <point x="1673" y="1059" type="curve" smooth="yes"/>
      <point x="1547" y="1059" type="line"/>
      <point x="1547" y="1239" type="line" smooth="yes"/>
      <point x="1547" y="1250"/>
      <point x="1538" y="1259"/>
      <point x="1527" y="1259" type="curve" smooth="yes"/>
      <point x="1434" y="1259" type="line" smooth="yes"/>
      <point x="1423" y="1259"/>
      <point x="1414" y="1250"/>
      <point x="1414" y="1239" type="curve" smooth="yes"/>
      <point x="1414" y="1059" type="line"/>
      <point x="1330" y="1059" type="line" smooth="yes"/>
      <point x="1319" y="1059"/>
      <point x="1310" y="1050"/>
      <point x="1310" y="1039" type="curve" smooth="yes"/>
      <point x="1310" y="947" type="line" smooth="yes"/>
      <point x="1310" y="936"/>
      <point x="1319" y="927"/>
      <point x="1330" y="927" type="curve" smooth="yes"/>
      <point x="1414" y="927" type="line"/>
      <point x="1414" y="409" type="line" smooth="yes"/>
      <point x="1414" y="295"/>
      <point x="1473" y="238"/>
      <point x="1591" y="238" type="curve" smooth="yes"/>
      <point x="1623" y="238"/>
      <point x="1654" y="243"/>
      <point x="1685" y="250" type="curve" smooth="yes"/>
      <point x="1711" y="255" type="line"/>
    </contour>
    <contour>
      <point x="203" y="238" type="line"/>
      <point x="210" y="238"/>
      <point x="219" y="244"/>
      <point x="222" y="251" type="curve" smooth="yes"/>
      <point x="340" y="563" type="line"/>
      <point x="748" y="563" type="line"/>
      <point x="866" y="251" type="line" smooth="yes"/>
      <point x="869" y="244"/>
      <point x="878" y="238"/>
      <point x="885" y="238" type="curve" smooth="yes"/>
      <point x="1019" y="238" type="line" smooth="yes"/>
      <point x="1032" y="238"/>
      <point x="1039" y="244"/>
      <point x="1039" y="257" type="curve" smooth="yes"/>
      <point x="1039" y="260"/>
      <point x="1038" y="263"/>
      <point x="1037" y="264" type="curve" smooth="yes"/>
      <point x="639" y="1319" type="line" smooth="yes"/>
      <point x="636" y="1326"/>
      <point x="627" y="1332"/>
      <point x="620" y="1332" type="curve" smooth="yes"/>
      <point x="468" y="1332" type="line" smooth="yes"/>
      <point x="461" y="1332"/>
      <point x="452" y="1326"/>
      <point x="449" y="1319" type="curve" smooth="yes"/>
      <point x="51" y="265" type="line" smooth="yes"/>
      <point x="50" y="263"/>
      <point x="50" y="260"/>
      <point x="50" y="257" type="curve" smooth="yes"/>
      <point x="50" y="244"/>
      <point x="57" y="238"/>
      <point x="70" y="238" type="curve" smooth="yes"/>
    </contour>
  </outline>
</glyph>
<glyph name="back_2" format="2">
  <advance width="2128"/>
  <unicode hex="E022"/>
  <outline>
    <contour>
      <point x="667" y="1308" type="line"/>
      <point x="665" y="1310"/>
      <point x="663" y="1311"/>
      <point x="660" y="1311" type="curve" smooth="yes"/>
      <point x="657" y="1311"/>
      <point x="655" y="1310"/>
      <point x="653" y="1308" type="curve" smooth="yes"/>
      <point x="539" y="1193" type="line" smooth="yes"/>
      <point x="537" y="1191"/>
      <point x="536" y="1189"/>
      <point x="536" y="1186" type="curve" smooth="yes"/>
      <point x="536" y="1183"/>
      <point x="537" y="1181"/>
      <point x="539" y="1179" type="curve" smooth="yes"/>
      <point x="934" y="783" type="line"/>
      <point x="539" y="387" type="line" smooth="yes"/>
      <point x="537" y="385"/>
      <point x="536" y="383"/>
      <point x="536" y="380" type="curve" smooth="yes"/>
      <point x="536" y="377"/>
      <point x="537" y="375"/>
      <point x="539" y="373" type="curve" smooth="yes"/>
      <point x="653" y="258" type="line" smooth="yes"/>
      <point x="655" y="256"/>
      <point x="657" y="255"/>
      <point x="660" y="255" type="curve" smooth="yes"/>
      <point x="663" y="255"/>
      <point x="665" y="256"/>
      <point x="667" y="258" type="curve" smooth="yes"/>
      <point x="1064" y="653" type="line"/>
      <point x="1460" y="258" type="line" smooth="yes"/>
      <point x="1462" y="256"/>
      <point x="1464" y="255"/>
      <point x="1467" y="255" type="curve" smooth="yes"/>
      <point x="1470" y="255"/>
      <point x="1472" y="256"/>
      <point x="1474" y="258" type="curve" smooth="yes"/>
      <point x="1589" y="373" type="line" smooth="yes"/>
      <point x="1591" y="375"/>
      <point x="1592" y="377"/>
      <point x="1592" y="380" type="curve" smooth="yes"/>
      <point x="1592" y="383"/>
      <point x="1591" y="385"/>
      <point x="1589" y="387" type="curve" smooth="yes"/>
      <point x="1192" y="783" type="line"/>
      <point x="1589" y="1179" type="line" smooth="yes"/>
      <point x="1591" y="1181"/>
      <point x="1592" y="1183"/>
      <point x="1592" y="1186" type="curve" smooth="yes"/>
      <point x="1592" y="1189"/>
      <point x="1591" y="1191"/>
      <point x="1589" y="1193" type="curve" smooth="yes"/>
      <point x="1474" y="1308" type="line" smooth="yes"/>
      <point x="1472" y="1310"/>
      <point x="1470" y="1311"/>
      <point x="1467" y="1311" type="curve" smooth="yes"/>
      <point x="1464" y="1311"/>
      <point x="1462" y="1310"/>
      <point x="1460" y="1308" type="curve" smooth="yes"/>
      <point x="1064" y="913" type="line"/>
    </contour>
    <contour>
      <point x="232" y="1424" type="line"/>
      <point x="1896" y="1424" type="line"/>
      <point x="1896" y="142" type="line"/>
      <point x="232" y="142" type="line"/>
    </contour>
    <contour>
      <point x="2068" y="-41" type="line"/>
      <point x="2075" y="-41"/>
      <point x="2078" y="-38"/>
      <point x="2078" y="-31" type="curve" smooth="yes"/>
      <point x="2078" y="1597" type="line" smooth="yes"/>
      <point x="2078" y="1604"/>
      <point x="2075" y="1607"/>
      <point x="2068" y="1607" type="curve" smooth="yes"/>
      <point x="60" y="1607" type="line" smooth="yes"/>
      <point x="53" y="1607"/>
      <point x="50" y="1604"/>
      <point x="50" y="1597" type="curve" smooth="yes"/>
      <point x="50" y="-31" type="line" smooth="yes"/>
      <point x="50" y="-38"/>
      <point x="53" y="-41"/>
      <point x="60" y="-41" type="curve" smooth="yes"/>
    </contour>
  </outline>
</glyph>
<glyph name="twitter" format="2">
  <advance width="2134"/>
  <unicode hex="E034"/>
  <outline>
    <contour>
      <point x="50" y="392" type="curve"/>
      <point x="149" y="256"/>
      <point x="273" y="160"/>
      <point x="425" y="89" type="curve" smooth="yes"/>
      <point x="572" y="21"/>
      <point x="707" y="0"/>
      <point x="846" y="0" type="curve" smooth="yes"/>
      <point x="901" y="0"/>
      <point x="952" y="3"/>
      <point x="1008" y="8" type="curve" smooth="yes"/>
      <point x="1213" y="25"/>
      <point x="1413" y="104"/>
      <point x="1598" y="269" type="curve"/>
      <point x="1737" y="395"/>
      <point x="1806" y="532"/>
      <point x="1838" y="670" type="curve"/>
      <point x="1863" y="670" type="line" smooth="yes"/>
      <point x="1930" y="670"/>
      <point x="1996" y="677"/>
      <point x="2084" y="760" type="curve"/>
      <point x="2061" y="758"/>
      <point x="2038" y="757"/>
      <point x="2015" y="757" type="curve" smooth="yes"/>
      <point x="1959" y="757"/>
      <point x="1908" y="763"/>
      <point x="1857" y="782" type="curve"/>
      <point x="1942" y="785"/>
      <point x="2022" y="817"/>
      <point x="2073" y="893" type="curve"/>
      <point x="2037" y="877"/>
      <point x="1990" y="872"/>
      <point x="1949" y="872" type="curve" smooth="yes"/>
      <point x="1909" y="872"/>
      <point x="1869" y="878"/>
      <point x="1829" y="890" type="curve"/>
      <point x="1824" y="946"/>
      <point x="1803" y="998"/>
      <point x="1770" y="1050" type="curve" smooth="yes"/>
      <point x="1673" y="1207"/>
      <point x="1551" y="1278"/>
      <point x="1399" y="1282" type="curve"/>
      <point x="1442" y="1295"/>
      <point x="1562" y="1314"/>
      <point x="1562" y="1361" type="curve" smooth="yes"/>
      <point x="1562" y="1370"/>
      <point x="1555" y="1378"/>
      <point x="1539" y="1378" type="curve" smooth="yes"/>
      <point x="1496" y="1378"/>
      <point x="1441" y="1355"/>
      <point x="1399" y="1339" type="curve" smooth="yes"/>
      <point x="1442" y="1355"/>
      <point x="1462" y="1379"/>
      <point x="1470" y="1410" type="curve"/>
      <point x="1404" y="1410"/>
      <point x="1368" y="1369"/>
      <point x="1321" y="1343" type="curve"/>
      <point x="1332" y="1359"/>
      <point x="1338" y="1375"/>
      <point x="1338" y="1391" type="curve"/>
      <point x="1180" y="1296"/>
      <point x="1071" y="1023"/>
      <point x="1027" y="900" type="curve"/>
      <point x="925" y="1000"/>
      <point x="741" y="1106"/>
      <point x="349" y="1255" type="curve"/>
      <point x="348" y="1247"/>
      <point x="347" y="1240"/>
      <point x="347" y="1232" type="curve" smooth="yes"/>
      <point x="347" y="1150"/>
      <point x="407" y="1052"/>
      <point x="515" y="997" type="curve"/>
      <point x="507" y="998"/>
      <point x="499" y="998"/>
      <point x="491" y="998" type="curve" smooth="yes"/>
      <point x="456" y="998"/>
      <point x="425" y="991"/>
      <point x="394" y="980" type="curve"/>
      <point x="402" y="946"/>
      <point x="404" y="916"/>
      <point x="449" y="873" type="curve"/>
      <point x="494" y="828"/>
      <point x="555" y="797"/>
      <point x="626" y="774" type="curve"/>
      <point x="615" y="775"/>
      <point x="605" y="776"/>
      <point x="596" y="776" type="curve" smooth="yes"/>
      <point x="541" y="776"/>
      <point x="514" y="751"/>
      <point x="487" y="724" type="curve"/>
      <point x="505" y="648"/>
      <point x="613" y="597"/>
      <point x="683" y="597" type="curve" smooth="yes"/>
      <point x="698" y="597"/>
      <point x="712" y="598"/>
      <point x="728" y="601" type="curve"/>
      <point x="688" y="577"/>
      <point x="651" y="553"/>
      <point x="651" y="510" type="curve" smooth="yes"/>
      <point x="651" y="462"/>
      <point x="710" y="422"/>
      <point x="766" y="422" type="curve" smooth="yes"/>
      <point x="777" y="422"/>
      <point x="788" y="423"/>
      <point x="799" y="425" type="curve"/>
      <point x="675" y="303"/>
      <point x="536" y="259"/>
      <point x="412" y="259" type="curve" smooth="yes"/>
      <point x="258" y="259"/>
      <point x="122" y="325"/>
    </contour>
  </outline>
</glyph>
<glyph name="download_1" format="2">
  <advance width="2090"/>
  <unicode hex="E045"/>
  <outline>
    <contour>
      <point x="1281" y="1021" type="line"/>
      <point x="1281" y="666" type="line"/>
      <point x="1597" y="666" type="line"/>
      <point x="1043" y="279" type="line"/>
      <point x="489" y="666" type="line"/>
      <point x="806" y="666" type="line"/>
      <point x="806" y="1021" type="line"/>
    </contour>
    <contour>
      <point x="1281" y="1231" type="line"/>
      <point x="1281" y="1067" type="line"/>
      <point x="806" y="1067" type="line"/>
      <point x="806" y="1231" type="line"/>
    </contour>
    <contour>
      <point x="1593" y="239" type="line"/>
      <point x="1593" y="131" type="line"/>
      <point x="494" y="131" type="line"/>
      <point x="494" y="239" type="line"/>
    </contour>
    <contour>
      <point x="1281" y="1383" type="line"/>
      <point x="1281" y="1275" type="line"/>
      <point x="806" y="1275" type="line"/>
      <point x="806" y="1383" type="line"/>
    </contour>
    <contour>
      <point x="1281" y="1471" type="line"/>
      <point x="1281" y="1427" type="line"/>
      <point x="806" y="1427" type="line"/>
      <point x="806" y="1471" type="line"/>
    </contour>
    <contour>
      <point x="50" y="788" type="curve" smooth="yes"/>
      <point x="50" y="237"/>
      <point x="495" y="-207"/>
      <point x="1045" y="-207" type="curve" smooth="yes"/>
      <point x="1594" y="-207"/>
      <point x="2040" y="238"/>
      <point x="2040" y="788" type="curve" smooth="yes"/>
      <point x="2040" y="1337"/>
      <point x="1594" y="1783"/>
      <point x="1045" y="1783" type="curve" smooth="yes"/>
      <point x="494" y="1783"/>
      <point x="50" y="1337"/>
    </contour>
  </outline>
</glyph>
<glyph name="twitter_2" format="2">
  <advance width="2090"/>
  <unicode hex="E054"/>
  <outline>
    <contour>
      <point x="50" y="791" type="curve" smooth="yes"/>
      <point x="50" y="240"/>
      <point x="494" y="-204"/>
      <point x="1045" y="-204" type="curve" smooth="yes"/>
      <point x="1594" y="-204"/>
      <point x="2040" y="240"/>
      <point x="2040" y="791" type="curve" smooth="yes"/>
      <point x="2040" y="1340"/>
      <point x="1594" y="1786"/>
      <point x="1045" y="1786" type="curve" smooth="yes"/>
      <point x="494" y="1786"/>
      <point x="50" y="1340"/>
    </contour>
    <contour>
      <point x="249" y="791" type="curve" smooth="yes"/>
      <point x="249" y="1230"/>
      <point x="606" y="1587"/>
      <point x="1045" y="1587" type="curve" smooth="yes"/>
      <point x="1484" y="1587"/>
      <point x="1841" y="1230"/>
      <point x="1841" y="791" type="curve" smooth="yes"/>
      <point x="1841" y="352"/>
      <point x="1484" y="-5"/>
      <point x="1045" y="-5" type="curve" smooth="yes"/>
      <point x="606" y="-5"/>
      <point x="249" y="352"/>
    </contour>
    <contour>
      <point x="338" y="560" type="curve"/>
      <point x="409" y="465"/>
      <point x="498" y="393"/>
      <point x="605" y="344" type="curve" smooth="yes"/>
      <point x="710" y="296"/>
      <point x="807" y="280"/>
      <point x="907" y="280" type="curve" smooth="yes"/>
      <point x="920" y="280"/>
      <point x="1008" y="286"/>
      <point x="1021" y="286" type="curve"/>
      <point x="1168" y="298"/>
      <point x="1308" y="352"/>
      <point x="1441" y="472" type="curve"/>
      <point x="1541" y="564"/>
      <point x="1588" y="658"/>
      <point x="1612" y="758" type="curve"/>
      <point x="1633" y="758" type="line" smooth="yes"/>
      <point x="1679" y="758"/>
      <point x="1728" y="764"/>
      <point x="1788" y="822" type="curve"/>
      <point x="1771" y="821"/>
      <point x="1755" y="820"/>
      <point x="1739" y="820" type="curve" smooth="yes"/>
      <point x="1699" y="820"/>
      <point x="1661" y="823"/>
      <point x="1625" y="838" type="curve"/>
      <point x="1685" y="838"/>
      <point x="1746" y="861"/>
      <point x="1779" y="917" type="curve"/>
      <point x="1752" y="905"/>
      <point x="1722" y="902"/>
      <point x="1694" y="902" type="curve" smooth="yes"/>
      <point x="1663" y="902"/>
      <point x="1633" y="906"/>
      <point x="1605" y="915" type="curve"/>
      <point x="1602" y="955"/>
      <point x="1587" y="992"/>
      <point x="1564" y="1029" type="curve" smooth="yes"/>
      <point x="1495" y="1142"/>
      <point x="1408" y="1191"/>
      <point x="1300" y="1194" type="curve"/>
      <point x="1331" y="1204"/>
      <point x="1415" y="1217"/>
      <point x="1415" y="1251" type="curve" smooth="yes"/>
      <point x="1415" y="1259"/>
      <point x="1410" y="1263"/>
      <point x="1399" y="1263" type="curve" smooth="yes"/>
      <point x="1372" y="1263"/>
      <point x="1336" y="1248"/>
      <point x="1308" y="1237" type="curve"/>
      <point x="1331" y="1248"/>
      <point x="1345" y="1264"/>
      <point x="1350" y="1286" type="curve"/>
      <point x="1302" y="1286"/>
      <point x="1277" y="1256"/>
      <point x="1243" y="1237" type="curve"/>
      <point x="1252" y="1248"/>
      <point x="1256" y="1259"/>
      <point x="1256" y="1268" type="curve" smooth="yes"/>
      <point x="1256" y="1271" type="line"/>
      <point x="1144" y="1204"/>
      <point x="1066" y="1009"/>
      <point x="1034" y="922" type="curve"/>
      <point x="962" y="994"/>
      <point x="831" y="1070"/>
      <point x="551" y="1174" type="curve"/>
      <point x="550" y="1172"/>
      <point x="550" y="1167"/>
      <point x="550" y="1159" type="curve" smooth="yes"/>
      <point x="550" y="1099"/>
      <point x="593" y="1031"/>
      <point x="670" y="991" type="curve"/>
      <point x="663" y="991"/>
      <point x="659" y="992"/>
      <point x="652" y="992" type="curve" smooth="yes"/>
      <point x="628" y="992"/>
      <point x="606" y="987"/>
      <point x="583" y="979" type="curve"/>
      <point x="588" y="954"/>
      <point x="591" y="934"/>
      <point x="622" y="903" type="curve" smooth="yes"/>
      <point x="654" y="870"/>
      <point x="698" y="848"/>
      <point x="749" y="832" type="curve"/>
      <point x="741" y="833"/>
      <point x="734" y="834"/>
      <point x="727" y="834" type="curve" smooth="yes"/>
      <point x="688" y="834"/>
      <point x="669" y="815"/>
      <point x="650" y="796" type="curve"/>
      <point x="660" y="744"/>
      <point x="739" y="705"/>
      <point x="789" y="705" type="curve" smooth="yes"/>
      <point x="798" y="705"/>
      <point x="809" y="706"/>
      <point x="821" y="708" type="curve"/>
      <point x="792" y="691"/>
      <point x="766" y="674"/>
      <point x="766" y="645" type="curve" smooth="yes"/>
      <point x="766" y="610"/>
      <point x="807" y="581"/>
      <point x="850" y="581" type="curve" smooth="yes"/>
      <point x="857" y="581"/>
      <point x="864" y="582"/>
      <point x="872" y="583" type="curve"/>
      <point x="783" y="496"/>
      <point x="685" y="466"/>
      <point x="596" y="466" type="curve" smooth="yes"/>
      <point x="486" y="466"/>
      <point x="389" y="512"/>
    </contour>
  </outline>
</glyph>
<glyph name="right_alt_shift" format="2">
  <advance width="3679"/>
  <unicode hex="E068"/>
  <outline>
    <contour>
      <point x="2417" y="1033" type="line"/>
      <point x="2426" y="1060"/>
      <point x="2437" y="1082"/>
      <point x="2448" y="1114" type="curve"/>
      <point x="2463" y="1086"/>
      <point x="2469" y="1058"/>
      <point x="2476" y="1033" type="curve"/>
      <point x="2599" y="698" type="line"/>
      <point x="2295" y="698" type="line"/>
    </contour>
    <contour>
      <point x="3116" y="1312" type="line"/>
      <point x="3116" y="1323"/>
      <point x="3107" y="1332"/>
      <point x="3096" y="1332" type="curve" smooth="yes"/>
      <point x="3003" y="1332" type="line" smooth="yes"/>
      <point x="2992" y="1332"/>
      <point x="2983" y="1323"/>
      <point x="2983" y="1312" type="curve" smooth="yes"/>
      <point x="2983" y="258" type="line" smooth="yes"/>
      <point x="2983" y="247"/>
      <point x="2992" y="238"/>
      <point x="3003" y="238" type="curve" smooth="yes"/>
      <point x="3096" y="238" type="line" smooth="yes"/>
      <point x="3107" y="238"/>
      <point x="3116" y="247"/>
      <point x="3116" y="258" type="curve" smooth="yes"/>
    </contour>
    <contour>
      <point x="3629" y="283" type="line"/>
      <point x="3619" y="308"/>
      <point x="3610" y="338"/>
      <point x="3601" y="373" type="curve" smooth="yes"/>
      <point x="3599" y="383"/>
      <point x="3593" y="388"/>
      <point x="3582" y="388" type="curve" smooth="yes"/>
      <point x="3579" y="388"/>
      <point x="3577" y="388"/>
      <point x="3576" y="387" type="curve"/>
      <point x="3547" y="379"/>
      <point x="3528" y="374"/>
      <point x="3503" y="374" type="curve" smooth="yes"/>
      <point x="3470" y="374"/>
      <point x="3450" y="389"/>
      <point x="3450" y="420" type="curve" smooth="yes"/>
      <point x="3450" y="927" type="line"/>
      <point x="3576" y="927" type="line" smooth="yes"/>
      <point x="3587" y="927"/>
      <point x="3596" y="936"/>
      <point x="3596" y="947" type="curve" smooth="yes"/>
      <point x="3596" y="1039" type="line" smooth="yes"/>
      <point x="3596" y="1050"/>
      <point x="3587" y="1059"/>
      <point x="3576" y="1059" type="curve" smooth="yes"/>
      <point x="3450" y="1059" type="line"/>
      <point x="3450" y="1239" type="line" smooth="yes"/>
      <point x="3450" y="1250"/>
      <point x="3441" y="1259"/>
      <point x="3430" y="1259" type="curve" smooth="yes"/>
      <point x="3337" y="1259" type="line" smooth="yes"/>
      <point x="3326" y="1259"/>
      <point x="3317" y="1250"/>
      <point x="3317" y="1239" type="curve" smooth="yes"/>
      <point x="3317" y="1059" type="line"/>
      <point x="3233" y="1059" type="line" smooth="yes"/>
      <point x="3222" y="1059"/>
      <point x="3213" y="1050"/>
      <point x="3213" y="1039" type="curve" smooth="yes"/>
      <point x="3213" y="947" type="line" smooth="yes"/>
      <point x="3213" y="936"/>
      <point x="3222" y="927"/>
      <point x="3233" y="927" type="curve" smooth="yes"/>
      <point x="3317" y="927" type="line"/>
      <point x="3317" y="409" type="line" smooth="yes"/>
      <point x="3317" y="295"/>
      <point x="3376" y="238"/>
      <point x="3494" y="238" type="curve" smooth="yes"/>
      <point x="3526" y="238"/>
      <point x="3557" y="243"/>
      <point x="3588" y="250" type="curve" smooth="yes"/>
      <point x="3614" y="255" type="line"/>
    </contour>
    <contour>
      <point x="2106" y="238" type="line"/>
      <point x="2113" y="238"/>
      <point x="2122" y="244"/>
      <point x="2125" y="251" type="curve" smooth="yes"/>
      <point x="2243" y="563" type="line"/>
      <point x="2651" y="563" type="line"/>
      <point x="2769" y="251" type="line" smooth="yes"/>
      <point x="2772" y="244"/>
      <point x="2781" y="238"/>
      <point x="2788" y="238" type="curve" smooth="yes"/>
      <point x="2922" y="238" type="line" smooth="yes"/>
      <point x="2935" y="238"/>
      <point x="2942" y="244"/>
      <point x="2942" y="257" type="curve" smooth="yes"/>
      <point x="2942" y="260"/>
      <point x="2941" y="263"/>
      <point x="2940" y="264" type="curve" smooth="yes"/>
      <point x="2542" y="1319" type="line" smooth="yes"/>
      <point x="2539" y="1326"/>
      <point x="2530" y="1332"/>
      <point x="2523" y="1332" type="curve" smooth="yes"/>
      <point x="2371" y="1332" type="line" smooth="yes"/>
      <point x="2364" y="1332"/>
      <point x="2355" y="1326"/>
      <point x="2352" y="1319" type="curve" smooth="yes"/>
      <point x="1954" y="265" type="line" smooth="yes"/>
      <point x="1953" y="263"/>
      <point x="1953" y="260"/>
      <point x="1953" y="257" type="curve" smooth="yes"/>
      <point x="1953" y="244"/>
      <point x="1960" y="238"/>
      <point x="1973" y="238" type="curve" smooth="yes"/>
    </contour>
    <contour>
      <point x="1949" y="238" type="line"/>
      <point x="1928" y="280"/>
      <point x="1902" y="335"/>
      <point x="1843" y="458" type="curve" smooth="yes"/>
      <point x="1776" y="598"/>
      <point x="1748" y="646"/>
      <point x="1714" y="678" type="curve" smooth="yes"/>
      <point x="1690" y="700"/>
      <point x="1658" y="735"/>
      <point x="1658" y="738" type="curve" smooth="yes"/>
      <point x="1658" y="747"/>
      <point x="1690" y="753"/>
      <point x="1748" y="774" type="curve" smooth="yes"/>
      <point x="1854" y="812"/>
      <point x="1899" y="906"/>
      <point x="1899" y="1041" type="curve" smooth="yes"/>
      <point x="1899" y="1225"/>
      <point x="1770" y="1332"/>
      <point x="1587" y="1332" type="curve" smooth="yes"/>
      <point x="1153" y="1332" type="line"/>
      <point x="1153" y="238" type="line"/>
      <point x="1318" y="238" type="line"/>
      <point x="1318" y="727" type="line"/>
      <point x="1405" y="727" type="line" smooth="yes"/>
      <point x="1466" y="727"/>
      <point x="1520" y="704"/>
      <point x="1589" y="578" type="curve" smooth="yes"/>
      <point x="1658" y="452"/>
      <point x="1722" y="303"/>
      <point x="1759" y="238" type="curve"/>
    </contour>
    <contour>
      <point x="1736" y="1025" type="curve" smooth="yes"/>
      <point x="1736" y="918"/>
      <point x="1637" y="862"/>
      <point x="1517" y="862" type="curve" smooth="yes"/>
      <point x="1318" y="862" type="line"/>
      <point x="1318" y="1197" type="line"/>
      <point x="1555" y="1197" type="line" smooth="yes"/>
      <point x="1681" y="1197"/>
      <point x="1736" y="1137"/>
    </contour>
    <contour>
      <point x="659" y="374" type="line"/>
      <point x="495" y="374" type="line"/>
      <point x="495" y="720" type="line"/>
      <point x="198" y="720" type="line"/>
      <point x="568" y="1170" type="line"/>
      <point x="586" y="1170" type="line"/>
      <point x="956" y="720" type="line"/>
      <point x="659" y="720" type="line"/>
    </contour>
    <contour>
      <point x="661" y="1298" type="line"/>
      <point x="632" y="1326"/>
      <point x="604" y="1340"/>
      <point x="577" y="1340" type="curve" smooth="yes"/>
      <point x="549" y="1340"/>
      <point x="518" y="1328"/>
      <point x="493" y="1298" type="curve" smooth="yes"/>
      <point x="86" y="810" type="line" smooth="yes"/>
      <point x="66" y="786"/>
      <point x="50" y="751"/>
      <point x="50" y="708" type="curve" smooth="yes"/>
      <point x="50" y="617"/>
      <point x="115" y="576"/>
      <point x="169" y="576" type="curve" smooth="yes"/>
      <point x="377" y="576" type="line"/>
      <point x="377" y="382" type="line" smooth="yes"/>
      <point x="377" y="302"/>
      <point x="430" y="237"/>
      <point x="496" y="237" type="curve" smooth="yes"/>
      <point x="658" y="237" type="line" smooth="yes"/>
      <point x="723" y="237"/>
      <point x="777" y="302"/>
      <point x="777" y="382" type="curve" smooth="yes"/>
      <point x="777" y="575" type="line"/>
      <point x="984" y="575" type="line" smooth="yes"/>
      <point x="1038" y="575"/>
      <point x="1103" y="615"/>
      <point x="1103" y="708" type="curve" smooth="yes"/>
      <point x="1103" y="750"/>
      <point x="1089" y="785"/>
      <point x="1068" y="810" type="curve" smooth="yes"/>
    </contour>
  </outline>
</glyph>
<glyph name="zwsp" format="2">
  <unicode hex="E081"/>
  <outline>
    <component base="_part.ringlarge" xOffset="-320" yOffset="997"/>
    <component base="_part.ringlarge" xOffset="-320" yOffset="-997"/>
    <contour>
      <point x="-48" y="-78" type="line"/>
      <point x="48" y="-78" type="line"/>
      <point x="48" y="1574" type="line"/>
      <point x="-48" y="1574" type="line"/>
    </contour>
  </outline>
</glyph>
<glyph name="nnbsp" format="2">
  <advance width="512"/>
  <unicode hex="E083"/>
  <outline>
    <component base="_part.dot" xOffset="-64"/>
    <contour>
      <point x="-16" y="1296" type="line"/>
      <point x="106" y="1296" type="line"/>
      <point x="256" y="1704" type="line"/>
      <point x="406" y="1296" type="line"/>
      <point x="528" y="1296" type="line"/>
      <point x="256" y="1980" type="line"/>
    </contour>
  </outline>
</glyph>
<glyph name="threepmsp" format="2">
  <advance width="680"/>
  <unicode hex="E088"/>
  <outline>
    <component base="_part.dot" xOffset="20"/>
    <contour>
      <point x="185" y="1901" type="curve"/>
      <point x="229" y="1823" type="line"/>
      <point x="253" y="1841"/>
      <point x="284" y="1854"/>
      <point x="335" y="1854" type="curve" smooth="yes"/>
      <point x="388" y="1854"/>
      <point x="425" y="1826"/>
      <point x="425" y="1785" type="curve" smooth="yes"/>
      <point x="425" y="1731"/>
      <point x="388" y="1692"/>
      <point x="310" y="1692" type="curve" smooth="yes"/>
      <point x="280" y="1692" type="line"/>
      <point x="280" y="1605" type="line"/>
      <point x="310" y="1605" type="line" smooth="yes"/>
      <point x="397" y="1605"/>
      <point x="436" y="1570"/>
      <point x="436" y="1502" type="curve" smooth="yes"/>
      <point x="436" y="1431"/>
      <point x="388" y="1402"/>
      <point x="310" y="1402" type="curve" smooth="yes"/>
      <point x="269" y="1402"/>
      <point x="226" y="1419"/>
      <point x="204" y="1444" type="curve"/>
      <point x="151" y="1364" type="line"/>
      <point x="179" y="1333"/>
      <point x="240" y="1309"/>
      <point x="316" y="1309" type="curve" smooth="yes"/>
      <point x="442" y="1309"/>
      <point x="529" y="1397"/>
      <point x="529" y="1507" type="curve" smooth="yes"/>
      <point x="529" y="1571"/>
      <point x="506" y="1626"/>
      <point x="439" y="1651" type="curve"/>
      <point x="491" y="1673"/>
      <point x="517" y="1734"/>
      <point x="517" y="1790" type="curve" smooth="yes"/>
      <point x="517" y="1888"/>
      <point x="442" y="1947"/>
      <point x="341" y="1947" type="curve" smooth="yes"/>
      <point x="281" y="1947"/>
      <point x="219" y="1932"/>
    </contour>
  </outline>
</glyph>
<glyph name="ofl" format="2">
  <advance width="2090"/>
  <unicode hex="E0C1"/>
  <outline>
    <contour>
      <point x="1045" y="-208" type="curve" smooth="yes"/>
      <point x="992" y="-208"/>
      <point x="940" y="-204"/>
      <point x="890" y="-196" type="curve"/>
      <point x="1017" y="-71"/>
      <point x="1102" y="132"/>
      <point x="1127" y="353" type="curve" smooth="yes"/>
      <point x="1190" y="918" type="line"/>
      <point x="1196" y="918" type="line" smooth="yes"/>
      <point x="1283" y="918"/>
      <point x="1333" y="911"/>
      <point x="1345" y="877" type="curve"/>
      <point x="1369" y="890"/>
      <point x="1433" y="941"/>
      <point x="1456" y="974" type="curve"/>
      <point x="1439" y="1000" type="line"/>
      <point x="1199" y="1000" type="line"/>
      <point x="1204" y="1043" type="line" smooth="yes"/>
      <point x="1220" y="1197"/>
      <point x="1253" y="1465"/>
      <point x="1417" y="1465" type="curve" smooth="yes"/>
      <point x="1479" y="1465"/>
      <point x="1528" y="1429"/>
      <point x="1551" y="1373" type="curve" smooth="yes"/>
      <point x="1568" y="1330"/>
      <point x="1568" y="1261"/>
      <point x="1558" y="1183" type="curve" smooth="yes"/>
      <point x="1519" y="897"/>
      <point x="1428" y="337"/>
      <point x="1428" y="248" type="curve" smooth="yes"/>
      <point x="1428" y="177"/>
      <point x="1477" y="140"/>
      <point x="1510" y="140" type="curve" smooth="yes"/>
      <point x="1569" y="140"/>
      <point x="1605" y="168"/>
      <point x="1719" y="243" type="curve"/>
      <point x="1709" y="276" type="line"/>
      <point x="1658" y="255"/>
      <point x="1623" y="246"/>
      <point x="1596" y="246" type="curve" smooth="yes"/>
      <point x="1578" y="246"/>
      <point x="1565" y="259"/>
      <point x="1565" y="300" type="curve" smooth="yes"/>
      <point x="1565" y="435"/>
      <point x="1664" y="973"/>
      <point x="1700" y="1272" type="curve" smooth="yes"/>
      <point x="1708" y="1337"/>
      <point x="1710" y="1408"/>
      <point x="1698" y="1434" type="curve" smooth="yes"/>
      <point x="1682" y="1467"/>
      <point x="1651" y="1499"/>
      <point x="1612" y="1523" type="curve" smooth="yes"/>
      <point x="1566" y="1551"/>
      <point x="1510" y="1559"/>
      <point x="1475" y="1559" type="curve" smooth="yes"/>
      <point x="1403" y="1559"/>
      <point x="1334" y="1522"/>
      <point x="1272" y="1474" type="curve" smooth="yes"/>
      <point x="1124" y="1360"/>
      <point x="1093" y="1194"/>
      <point x="1070" y="1000" type="curve"/>
      <point x="1005" y="1000" type="line"/>
      <point x="916" y="946" type="line"/>
      <point x="930" y="918" type="line"/>
      <point x="1061" y="918" type="line"/>
      <point x="993" y="303" type="line" smooth="yes"/>
      <point x="974" y="124"/>
      <point x="913" y="-91"/>
      <point x="816" y="-182" type="curve"/>
      <point x="377" y="-79"/>
      <point x="50" y="315"/>
      <point x="50" y="787" type="curve" smooth="yes"/>
      <point x="50" y="1336"/>
      <point x="494" y="1782"/>
      <point x="1045" y="1782" type="curve" smooth="yes"/>
      <point x="1594" y="1782"/>
      <point x="2040" y="1336"/>
      <point x="2040" y="787" type="curve" smooth="yes"/>
      <point x="2040" y="237"/>
      <point x="1594" y="-208"/>
    </contour>
    <contour>
      <point x="481" y="140" type="curve" smooth="yes"/>
      <point x="551" y="140"/>
      <point x="626" y="183"/>
      <point x="687" y="234" type="curve" smooth="yes"/>
      <point x="817" y="346"/>
      <point x="888" y="523"/>
      <point x="888" y="685" type="curve" smooth="yes"/>
      <point x="888" y="886"/>
      <point x="817" y="1028"/>
      <point x="635" y="1028" type="curve" smooth="yes"/>
      <point x="563" y="1028"/>
      <point x="488" y="989"/>
      <point x="429" y="941" type="curve" smooth="yes"/>
      <point x="276" y="813"/>
      <point x="225" y="663"/>
      <point x="225" y="490" type="curve" smooth="yes"/>
      <point x="225" y="291"/>
      <point x="319" y="140"/>
    </contour>
    <contour>
      <point x="541" y="243" type="curve" smooth="yes"/>
      <point x="701" y="243"/>
      <point x="763" y="486"/>
      <point x="763" y="635" type="curve" smooth="yes"/>
      <point x="763" y="820"/>
      <point x="695" y="922"/>
      <point x="574" y="922" type="curve" smooth="yes"/>
      <point x="406" y="922"/>
      <point x="351" y="694"/>
      <point x="351" y="540" type="curve" smooth="yes"/>
      <point x="351" y="378"/>
      <point x="433" y="243"/>
    </contour>
  </outline>
</glyph>
<glyph name="_part.dotsmall" format="2">
  <advance width="640"/>
  <outline>
    <contour>
      <point x="425" y="750" type="curve" smooth="yes"/>
      <point x="425" y="808"/>
      <point x="377" y="855"/>
      <point x="319" y="855" type="curve" smooth="yes"/>
      <point x="261" y="855"/>
      <point x="215" y="807"/>
      <point x="215" y="750" type="curve" smooth="yes"/>
      <point x="215" y="692"/>
      <point x="261" y="645"/>
      <point x="319" y="645" type="curve" smooth="yes"/>
      <point x="377" y="645"/>
      <point x="425" y="692"/>
    </contour>
  </outline>
</glyph>
<glyph name="_part.spacebottom" format="2">
  <advance width="640"/>
  <outline>
    <contour>
      <point x="48" y="-208" type="line"/>
      <point x="592" y="-208" type="line"/>
      <point x="592" y="-96" type="line"/>
      <point x="48" y="-96" type="line"/>
    </contour>
  </outline>
</glyph>
<glyph name="_part.spaceside" format="2">
  <advance width="192"/>
  <outline>
    <contour>
      <point x="40" y="-144" type="line"/>
      <point x="152" y="-144" type="line"/>
      <point x="152" y="128" type="line"/>
      <point x="40" y="128" type="line"/>
    </contour>
  </outline>
</glyph>
<glyph name="_part.zwpart" format="2">
  <advance width="192"/>
  <outline>
    <contour>
      <point x="40" y="0" type="line"/>
      <point x="152" y="0" type="line"/>
      <point x="152" y="226" type="line"/>
      <point x="40" y="226" type="line"/>
    </contour>
  </outline>
</glyph>
<glyph name="popdirisolate" format="2">
  <outline>
    <contour>
      <point x="-56" y="-472" type="line"/>
      <point x="56" y="-472" type="line"/>
      <point x="56" y="1748" type="line"/>
      <point x="-56" y="1748" type="line"/>
    </contour>
    <contour>
      <point x="286" y="1404" type="line"/>
      <point x="470" y="1404" type="line"/>
      <point x="-286" y="1980" type="line"/>
      <point x="-470" y="1980" type="line"/>
    </contour>
    <contour>
      <point x="-470" y="1404" type="line"/>
      <point x="-286" y="1404" type="line"/>
      <point x="470" y="1980" type="line"/>
      <point x="286" y="1980" type="line"/>
    </contour>
  </outline>
</glyph>
<glyph name="rlisolate" format="2">
  <outline>
    <component base="rlmark"/>
    <contour>
      <point x="-886" y="1180" type="line"/>
      <point x="-774" y="1180" type="line"/>
      <point x="-774" y="1980" type="line"/>
      <point x="-886" y="1980" type="line"/>
    </contour>
  </outline>
</glyph>
